# xmcd CD database file
#
# Track frame offsets:
#	195
#	10804
#	31154
#	52502
#	69540
#	83958
#	100822
#	115293
#	130744
#	154754
#	171368
#
# Disc length: 2502 seconds
#
# Revision: 0
# Processed by: cddbd v1.5.2PL0 Copyright (c) Steve Scherf et al.
# Submitted via: CDex 1.70beta2
#
DISCID=8009c40b
DTITLE=加護亜依 - AI KAGO meets JAZZ - The first door
DYEAR=2010
DGENRE=Jazz
TTITLE0=How high the moon
TTITLE1=Night and day
TTITLE2=Blue moon
TTITLE3=Sunny
TTITLE4=You'd be so nice to come home to
TTITLE5=Someone to watch over me
TTITLE6=When you wish upon a star
TTITLE7=Fly me to the moon
TTITLE8=Over the rainbow
TTITLE9=All of me
TTITLE10=Arrivederci(17才よさようなら)
EXTD=YEAR: 2010
EXTT0=
EXTT1=
EXTT2=
EXTT3=
EXTT4=
EXTT5=
EXTT6=
EXTT7=
EXTT8=
EXTT9=
EXTT10=
PLAYORDER=
